<svg width="140" height="168" viewBox="0 0 140 168" fill="none" xmlns="http://www.w3.org/2000/svg">
<g filter="url(#filter0_d)">
<path d="M117 58.2222C117 84.8546 69 134 69 134C69 134 21 84.8546 21 58.2222C21 31.5898 42.4903 10 69 10C95.5097 10 117 31.5898 117 58.2222Z" fill="#FCFCFC"/>
<path d="M116 58.2222C116 64.6241 113.1 72.5078 108.62 80.8237C104.155 89.1106 98.1902 97.7032 92.2071 105.489C86.2268 113.271 80.244 120.227 75.7552 125.238C73.5112 127.743 71.6417 129.76 70.334 131.151C69.786 131.734 69.3368 132.207 69 132.559C68.6632 132.207 68.214 131.734 67.666 131.151C66.3583 129.76 64.4888 127.743 62.2449 125.238C57.756 120.227 51.7732 113.271 45.7929 105.489C39.8098 97.7032 33.845 89.1106 29.3804 80.8237C24.9001 72.5078 22 64.6241 22 58.2222C22 32.1377 43.047 11 69 11C94.953 11 116 32.1377 116 58.2222Z" stroke="#609FFF" stroke-width="2"/>
</g>
<g clip-path="url(#clip0)">
<path d="M95.7158 83.2361L91.8596 47.9013C91.799 35.2931 81.8917 25.0557 69.7227 25.0557C57.5537 25.0557 47.6464 35.2938 47.5865 47.9013L43.7296 83.2361C43.6651 83.8273 43.8566 84.4178 44.2531 84.8479C44.6496 85.2785 45.2112 85.5079 45.7812 85.4638C45.8211 85.4611 49.7651 85.1896 53.317 85.1896C55.8206 85.1896 57.0649 85.3233 57.6684 85.4364C60.6897 85.9995 66.5873 89.9692 68.6047 91.4519C68.94 91.6973 69.3313 91.8211 69.7227 91.8211C70.1147 91.8211 70.508 91.6967 70.8433 91.4492C72.7975 90.008 78.5184 86.1366 81.4797 85.5427C82.1612 85.4063 83.6029 85.2438 86.6042 85.2438C90.0568 85.2438 93.6429 85.4624 93.6784 85.4651C94.2451 85.4925 94.8035 85.2719 95.1968 84.8425C95.5901 84.4132 95.7803 83.8246 95.7158 83.2361ZM86.6042 81.2312C83.9111 81.2312 81.9955 81.3529 80.7454 81.6037C77.2766 82.2992 72.049 85.7487 69.7201 87.3785C67.3358 85.7159 61.9135 82.1514 58.3519 81.4866C57.2332 81.278 55.5859 81.177 53.3157 81.177C51.3583 81.177 49.3279 81.2532 47.8295 81.3275L51.4414 48.2431C51.4498 48.1681 51.4537 48.0926 51.4537 48.0177C51.4537 37.5689 59.6485 29.0689 69.7221 29.0689C79.795 29.0689 87.9904 37.5689 87.9904 48.0177C87.9904 48.0932 87.9949 48.1688 88.0027 48.2431L91.6159 81.3455C90.2464 81.288 88.4237 81.2312 86.6042 81.2312Z" fill="#0F0049"/>
<path d="M58.1173 50.4944C60.0312 50.4944 61.5828 48.885 61.5828 46.8998C61.5828 44.9145 60.0312 43.3052 58.1173 43.3052C56.2033 43.3052 54.6517 44.9145 54.6517 46.8998C54.6517 48.885 56.2033 50.4944 58.1173 50.4944Z" fill="#0F0049"/>
<path d="M81.3282 50.4944C83.2422 50.4944 84.7937 48.885 84.7937 46.8998C84.7937 44.9145 83.2422 43.3052 81.3282 43.3052C79.4142 43.3052 77.8627 44.9145 77.8627 46.8998C77.8627 48.885 79.4142 50.4944 81.3282 50.4944Z" fill="#0F0049"/>
<path d="M69.7227 75.2664L78.3546 52.0811H61.0895L69.7227 75.2664ZM69.7227 64.1288L66.731 56.0936H72.7143L69.7227 64.1288Z" fill="#0F0049"/>
</g>
<defs>
<filter id="filter0_d" x="0" y="0" width="140" height="168" filterUnits="userSpaceOnUse" color-interpolation-filters="sRGB">
<feFlood flood-opacity="0" result="BackgroundImageFix"/>
<feColorMatrix in="SourceAlpha" type="matrix" values="0 0 0 0 0 0 0 0 0 0 0 0 0 0 0 0 0 0 127 0"/>
<feOffset dx="1" dy="12"/>
<feGaussianBlur stdDeviation="11"/>
<feColorMatrix type="matrix" values="0 0 0 0 0 0 0 0 0 0 0 0 0 0 0 0 0 0 0.09 0"/>
<feBlend mode="normal" in2="BackgroundImageFix" result="effect1_dropShadow"/>
<feBlend mode="normal" in="SourceGraphic" in2="effect1_dropShadow" result="shape"/>
</filter>
<clipPath id="clip0">
<rect width="52.8696" height="66.8764" fill="white" transform="translate(43.2609 25)"/>
</clipPath>
</defs>
</svg>
