<svg width="113" height="133" viewBox="0 0 113 133" fill="none" xmlns="http://www.w3.org/2000/svg">
<g filter="url(#filter0_d)">
<path d="M90 44.6111C90 63.7263 55.5 99 55.5 99C55.5 99 21 63.7263 21 44.6111C21 25.4959 36.4462 10 55.5 10C74.5538 10 90 25.4959 90 44.6111Z" fill="#FCFCFC"/>
</g>
<path d="M76.0253 29.3761C74.9181 28.239 73.4518 27.6128 71.8963 27.6128C70.311 27.6128 68.8251 28.2598 67.7117 29.4345L66.4533 30.7623C63.2273 28.5543 59.6325 27.3926 56.0002 27.3926C52.3675 27.3926 48.7727 28.5543 45.547 30.7623L44.2883 29.4345C43.1749 28.2598 41.6886 27.6132 40.1037 27.6132C38.5486 27.6132 37.0823 28.2394 35.9751 29.3769C33.6684 31.7467 33.6437 35.6288 35.9197 38.0308L37.7767 39.9901C36.6159 42.5122 36.0056 45.1197 36.0056 47.5774C36.0056 56.2863 43.6672 61.6964 56.0005 61.6964C68.3336 61.6964 75.9951 56.2863 75.9951 47.5774C75.9951 45.1201 75.3845 42.513 74.2233 39.9901L76.081 38.0308C78.3567 35.6288 78.3319 31.7467 76.0253 29.3761ZM74.5248 36.4331L72.117 38.9735C71.7824 39.3268 71.7063 39.8646 71.9287 40.3032C73.1594 42.7291 73.8097 45.2444 73.8097 47.577C73.8097 56.3102 64.6095 59.4218 55.9998 59.4218C47.3898 59.4218 38.1895 56.3102 38.1895 47.577C38.1895 45.244 38.8398 42.7283 40.0702 40.3032C40.2926 39.8646 40.2162 39.3264 39.8819 38.9735L37.4744 36.4331C36.0442 34.9238 36.0599 32.4843 37.509 30.9954C38.2048 30.2809 39.126 29.8871 40.1033 29.8871C41.0995 29.8871 42.0334 30.2938 42.7332 31.0318L44.635 33.0381C45.0133 33.4372 45.6144 33.4891 46.0513 33.1616C49.096 30.8752 52.5361 29.6668 56.0002 29.6668C59.4636 29.6668 62.9036 30.8752 65.9487 33.1616C66.3852 33.4895 66.9871 33.4372 67.3654 33.0381L69.2671 31.0318C69.9666 30.2938 70.9005 29.8871 71.8967 29.8871C72.8743 29.8871 73.7955 30.2809 74.491 30.995C75.9401 32.4847 75.9554 34.9238 74.5248 36.4331Z" fill="#080029"/>
<path d="M42.1347 42.287C40.0371 44.4707 39.6337 47.5906 41.2336 49.2557C42.8331 50.9216 45.83 50.5013 47.9277 48.3176C50.0249 46.1343 50.4283 43.0144 48.8288 41.3489C47.2289 39.6837 44.232 40.1037 42.1347 42.287ZM44.7126 47.4344C43.6316 47.4344 42.7555 46.5224 42.7555 45.3971C42.7555 44.2717 43.6316 43.3597 44.7126 43.3597C45.7936 43.3597 46.6697 44.2717 46.6697 45.3971C46.6697 46.5224 45.7936 47.4344 44.7126 47.4344Z" fill="#080029"/>
<path d="M63.1711 41.3489C61.5709 43.0144 61.975 46.1343 64.0723 48.3176C66.1695 50.5013 69.1668 50.9213 70.7664 49.2557C72.3666 47.5906 71.9625 44.4707 69.8652 42.287C67.768 40.1037 64.7703 39.6837 63.1711 41.3489ZM67.2873 47.4344C66.2063 47.4344 65.3303 46.5225 65.3303 45.3971C65.3303 44.2717 66.2063 43.3597 67.2873 43.3597C68.3684 43.3597 69.2444 44.2717 69.2444 45.3971C69.2444 46.5225 68.368 47.4344 67.2873 47.4344Z" fill="#080029"/>
<path d="M58.0469 49.9568C58.5417 49.8484 58.9131 49.3924 58.9131 48.8447C58.9131 48.2166 58.4241 47.7075 57.8208 47.7075H54.1797C53.5764 47.7075 53.0874 48.2166 53.0874 48.8447C53.0874 49.392 53.4588 49.848 53.9532 49.9568L52.1811 51.8016C51.7544 52.2454 51.7544 52.9656 52.1811 53.4095C52.3945 53.6316 52.6741 53.7427 52.9534 53.7427C53.2327 53.7427 53.5123 53.6316 53.7257 53.4095L55.9999 51.042L58.2741 53.4095C58.4875 53.6316 58.7671 53.7427 59.0464 53.7427C59.3256 53.7427 59.6053 53.6316 59.8186 53.4095C60.2454 52.9656 60.2454 52.2454 59.8186 51.8016L58.0469 49.9568Z" fill="#080029"/>
<defs>
<filter id="filter0_d" x="0" y="0" width="113" height="133" filterUnits="userSpaceOnUse" color-interpolation-filters="sRGB">
<feFlood flood-opacity="0" result="BackgroundImageFix"/>
<feColorMatrix in="SourceAlpha" type="matrix" values="0 0 0 0 0 0 0 0 0 0 0 0 0 0 0 0 0 0 127 0"/>
<feOffset dx="1" dy="12"/>
<feGaussianBlur stdDeviation="11"/>
<feColorMatrix type="matrix" values="0 0 0 0 0 0 0 0 0 0 0 0 0 0 0 0 0 0 0.09 0"/>
<feBlend mode="normal" in2="BackgroundImageFix" result="effect1_dropShadow"/>
<feBlend mode="normal" in="SourceGraphic" in2="effect1_dropShadow" result="shape"/>
</filter>
</defs>
</svg>
