<svg width="312" height="312" viewBox="0 0 312 312" fill="none" xmlns="http://www.w3.org/2000/svg">
<path d="M200.465 209.3C214.417 211.001 226.388 219.605 236.239 220.784C247.188 222.093 263.745 214.9 280.63 223.367C284.976 225.546 288.545 228.165 287.215 231.42C284.898 237.091 280.022 239.314 269.34 240.855L268.201 241.013C259.943 242.111 251.068 242.377 228.57 242.525L220.882 242.584C193.457 242.822 177.597 244.107 157.058 245.747L154.965 245.917C117.145 249.029 86.9556 248.53 64.3978 245.081L63.7166 244.975C45.4915 242.12 34.5343 237.399 29.1855 232.041C26.0368 228.887 24.223 225.946 24.1294 222.803C24.0358 219.66 28.6798 216.205 31.3239 214.9C38.6893 211.266 41.0926 209.948 55.2525 208.087C61.3492 207.286 70.4832 207.35 81.0413 206.994C118.917 205.715 177.429 206.491 200.465 209.3Z" fill="white"/>
<path fill-rule="evenodd" clip-rule="evenodd" d="M218.584 223.446C194.425 278.201 106.998 276.438 46.1653 239.066C34.5475 231.928 -5.38828 198.288 33.9179 178.644C73.2242 159 60.6343 128.827 92.3558 92.8391C129.04 51.2205 197.356 29.8748 245.402 85.8706C367.518 228.192 226.719 205.009 218.584 223.446Z" fill="#D9E8FF"/>
<path fill-rule="evenodd" clip-rule="evenodd" d="M67.9984 87.2878C66.0627 84.1775 64.123 82.984 62.2149 84.0164C60.5996 84.8903 60.331 87.2246 61.1904 90.9589L60.6754 91.2367C59.9676 91.6183 59.7032 92.5015 60.0849 93.2093C60.1179 93.2705 60.1552 93.3292 60.1967 93.3851L60.4727 93.7545C64.5023 99.0998 67.6953 101.289 70.1865 100.085C72.2804 99.0733 72.6341 94.7632 71.5568 86.9638C71.4813 86.4176 70.9945 86.0294 70.4523 86.0687L70.3843 86.0759C70.2613 86.0929 70.1423 86.1318 70.033 86.1907L67.9984 87.2878ZM62.285 90.1217L66.7774 87.6913L66.7668 87.6748C65.222 85.2788 63.9132 84.5165 62.8088 85.114L62.7581 85.1432C61.9426 85.6409 61.7166 87.2046 62.236 89.8772L62.285 90.1217ZM70.3606 87.4316L61.2677 92.335C61.1666 92.3895 61.1288 92.5157 61.1834 92.6168C61.1881 92.6255 61.1934 92.6339 61.1993 92.6419L61.4672 93.0003C65.1503 97.8858 67.9205 99.7941 69.6435 98.9614C70.9526 98.3288 71.2961 94.4865 70.3854 87.6133L70.3606 87.4316ZM68.5027 95.2935C68.7166 95.0694 68.848 94.7659 68.848 94.4318C68.848 93.7425 68.2892 93.1838 67.6 93.1838C66.9107 93.1838 66.352 93.7425 66.352 94.4318C66.352 95.121 66.9107 95.6798 67.6 95.6798C67.6543 95.6798 67.7077 95.6763 67.7602 95.6696L68.4696 96.9719L68.4953 97.0131C68.6154 97.1833 68.8466 97.2402 69.0339 97.1382C69.2357 97.0283 69.3102 96.7756 69.2002 96.5739L68.5027 95.2935Z" fill="#ECA718"/>
<path fill-rule="evenodd" clip-rule="evenodd" d="M200.465 209.3C214.417 211.001 226.388 219.605 236.239 220.784C247.188 222.093 263.745 214.9 280.63 223.367C284.976 225.546 288.545 228.165 287.215 231.42C284.898 237.091 280.022 239.314 269.34 240.855L268.201 241.013C259.943 242.111 251.068 242.377 228.57 242.525L220.882 242.584C193.457 242.822 177.597 244.107 157.059 245.747L154.965 245.917C117.145 249.029 86.9556 248.53 64.3979 245.081L63.7166 244.975C45.4916 242.12 34.5344 237.399 29.1856 232.041C26.0368 228.887 24.2231 225.946 24.1295 222.803C24.0358 219.66 28.6799 216.205 31.3239 214.9C38.6894 211.266 41.0927 209.948 55.2525 208.087C61.3493 207.286 70.4833 207.35 81.0413 206.994C118.917 205.715 177.429 206.491 200.465 209.3ZM54.9398 210.72L54.0119 210.844C40.8164 212.633 32.3811 215.888 28.3853 219.134L28.1359 219.343C25.0676 221.987 24.7807 224.959 29.1912 229.353C34.0135 234.158 46.313 239.578 64.0475 242.341C86.2499 245.801 116.1 246.805 153.586 243.797L157.516 243.48C179.158 241.779 195.762 240.873 226.493 240.657L234.976 240.594C253.271 240.428 261.048 240.101 268.555 239.058L269.268 238.955C302.418 232.471 278.498 220.837 264.775 220.784C253.023 220.738 238.907 224.044 234.976 222.807C222.586 218.907 216.224 212.936 200.465 211.025L195.883 210.476L191.971 210.291C127.861 207.313 82.1718 207.161 54.9398 210.72Z" fill="#00160A"/>
<path d="M96.4606 60.0612C96.233 60.0539 96.0051 60.0541 95.7774 60.062C90.1674 60.2549 85.7637 64.914 85.8654 70.509L85.8698 70.6788L85.9387 72.7753C86.1357 79.0724 86.2441 85.3446 86.2638 91.592L86.2977 110.814C86.3052 117.732 86.301 123.977 86.2807 130.091L86.2529 136.576C86.1439 157.221 85.8498 171.71 85.304 178.017L85.1986 179.196C84.5399 186.904 84.4034 197.975 84.7941 212.384C84.7986 212.55 84.807 212.717 84.8193 212.883C85.251 218.724 90.2899 223.124 96.1187 222.789L96.2955 222.777L98.2327 222.636C116.34 221.344 134.447 220.698 152.554 220.698C170.277 220.698 188.137 221.317 206.132 222.555C206.653 222.591 207.175 222.594 207.696 222.564C214.518 222.178 219.753 216.389 219.478 209.584L219.468 209.378L219.332 206.923C218.124 184.815 217.499 162.707 217.455 140.599L217.453 138.142C217.453 122.029 218.208 99.9293 219.716 71.8346C219.733 71.5199 219.737 71.2046 219.727 70.8896C219.537 64.791 214.489 59.9877 208.41 60.0781L208.226 60.0823L199.026 60.3612C178.124 60.9777 162.904 61.2999 153.357 61.3276L151.72 61.3294L150.037 61.325C140.291 61.2832 125.203 60.949 104.765 60.3224L96.4606 60.0612Z" fill="white"/>
<path fill-rule="evenodd" clip-rule="evenodd" d="M207.513 59.488C206.776 59.8918 205.805 60.1758 204.6 60.3397C207.702 60.6153 210.142 60.551 211.918 60.147L211.534 60.0994C210.283 59.9415 208.943 59.7377 207.513 59.488Z" fill="#E7EAEE"/>
<path fill-rule="evenodd" clip-rule="evenodd" d="M90.8143 208.257L90.9007 208.261C91.4369 208.298 91.8151 208.717 91.7658 209.179C91.7093 209.708 91.1439 210.221 90.5265 210.264C90.0358 210.298 89.6949 209.92 89.7494 209.334C89.8065 208.719 90.2881 208.26 90.8143 208.257Z" fill="#E7EAEE"/>
<path fill-rule="evenodd" clip-rule="evenodd" d="M100.635 216.292L100.721 216.295C101.257 216.332 101.635 216.751 101.586 217.213C101.53 217.743 100.964 218.256 100.347 218.298C99.8561 218.332 99.5152 217.955 99.5697 217.369C99.6268 216.754 100.108 216.294 100.635 216.292Z" fill="#E7EAEE"/>
<path fill-rule="evenodd" clip-rule="evenodd" d="M152.663 215.764C131.358 220.466 171.36 219.635 186.964 218.605C195.457 218.045 202.238 222.287 206.132 222.555C206.653 222.59 207.175 222.594 207.696 222.564C214.519 222.178 219.753 216.389 219.478 209.584L219.468 209.377L219.332 206.923C218.124 184.815 217.499 162.707 217.456 140.599L217.453 138.142C217.453 122.029 218.208 99.9293 219.716 71.8346C219.733 71.5198 219.737 71.2045 219.727 70.8895C219.537 64.7909 207.851 203.584 152.663 215.764Z" fill="#E7EAEE"/>
<path d="M215.849 210.081L215.925 210.083C216.313 210.115 216.631 210.519 216.585 211.012C216.534 211.559 216.063 212.05 215.592 212.087C215.262 212.114 214.983 211.758 215.032 211.148C215.083 210.523 215.474 210.09 215.849 210.081Z" fill="white"/>
<path fill-rule="evenodd" clip-rule="evenodd" d="M215.716 213.645C214.329 213.755 213.354 212.515 213.475 211.022C213.592 209.571 214.697 208.42 216.024 208.524C217.329 208.628 218.265 209.818 218.141 211.157C218.021 212.443 216.962 213.546 215.716 213.645ZM215.925 210.083L215.849 210.081C215.474 210.09 215.083 210.523 215.032 211.148C214.983 211.758 215.262 212.114 215.593 212.087C216.063 212.05 216.534 211.559 216.585 211.012C216.631 210.519 216.313 210.115 215.925 210.083Z" fill="white"/>
<path d="M202.654 69.0652C207.584 69.0652 211.581 73.0622 211.581 77.9927C211.581 78.1772 211.576 78.3617 211.564 78.5459L211.433 80.733C211.193 84.8839 210.954 89.8123 210.715 95.5181L210.679 96.4317C210.096 111.781 210.077 148.093 210.624 205.368C210.671 210.299 206.712 214.334 201.782 214.381C201.662 214.382 201.541 214.381 201.421 214.377L103.477 211.355C98.9421 211.215 95.2333 207.696 94.8559 203.174L94.7729 202.153C93.4829 185.894 93.4061 165.134 94.5425 139.871L94.7091 136.249C95.2895 122.955 95.335 103.593 94.8457 78.1644C94.7519 73.2862 98.589 69.2466 103.446 69.0711L103.686 69.0656L202.654 69.0652Z" fill="white"/>
<path fill-rule="evenodd" clip-rule="evenodd" d="M136.803 174.346C141.13 174.528 145.573 173.761 149.427 171.878C154.253 169.52 157.885 165.564 159.895 159.891C162.542 152.419 161.57 144.339 157.764 137.228C154.376 130.899 149.05 126.082 144.14 124.89C144.14 124.89 157.764 144.055 155.812 154.531C152.828 170.55 136.803 174.346 136.803 174.346Z" fill="#E7EAEE"/>
<path fill-rule="evenodd" clip-rule="evenodd" d="M139.949 151.84C142.055 152.714 142.698 154.337 141.878 156.709L141.831 156.842C136.498 171.484 130.21 171.617 135.591 156.842C136.243 155.052 136.081 153.679 135.106 152.723C136.83 152.373 138.444 152.078 139.949 151.84Z" fill="#E7EAEE"/>
<path fill-rule="evenodd" clip-rule="evenodd" d="M106.55 134.725C107.93 130.625 109.944 127.543 113.71 125.107L114.188 124.804C115.001 124.294 116.002 123.716 116.817 124.111C117.852 124.612 119.35 126.438 118.438 127.155C117.82 127.642 115.275 128.159 113.357 129.839C111.092 131.823 109.462 135.021 109.462 135.804C109.462 138.358 105.735 137.145 106.55 134.725Z" fill="#E7EAEE"/>
<path fill-rule="evenodd" clip-rule="evenodd" d="M102.283 76.2952C97.5468 89.3005 97.579 91.8809 97.2948 89.6393C96.3756 82.3897 95.6823 77.6258 96.7745 74.732C98.1572 71.0683 101.623 70.3477 102.516 70.7729C104.404 71.6719 102.283 76.2952 102.283 76.2952Z" fill="#E7EAEE"/>
<path fill-rule="evenodd" clip-rule="evenodd" d="M180.21 143.132L178.634 143.084C176.765 143.036 175.417 143.047 174.287 143.136C173.379 143.207 172.701 143.33 172.318 143.452L172.242 143.477L172.234 143.513C172.192 143.725 172.161 144.009 172.148 144.352L172.144 144.483C172.119 145.513 172.243 146.888 172.491 148.424C172.693 149.684 172.97 150.992 173.259 152.095L173.331 152.366C173.444 152.778 173.551 153.135 173.646 153.414L173.68 153.513L173.722 153.529C174.302 153.735 175.457 153.76 177.682 153.596L179.194 153.477C180.212 153.403 180.954 153.37 181.686 153.379L188.79 153.528C189.784 153.547 190.682 153.561 191.562 153.573L193.158 153.591C197.143 153.823 201.523 153.649 202.068 152.657C203.73 149.631 204.513 143.4 203.73 143.359C202.32 143.284 200.613 143.195 199.803 143.206L197.931 143.24L196.233 143.253C195.458 143.258 194.65 143.26 193.782 143.261L184.046 143.239C183.413 143.234 182.793 143.219 181.676 143.182L180.21 143.132Z" fill="#E7EAEE"/>
<path fill-rule="evenodd" clip-rule="evenodd" d="M105.557 58.1136L96.5324 57.8304C96.2553 57.8215 95.9779 57.8218 95.7007 57.8314C88.8021 58.0686 83.4019 63.8534 83.6391 70.752L83.7079 72.845C83.7887 75.4297 83.9118 78.0102 84.0346 80.5864L84.0346 80.5864C84.2432 84.9609 84.4512 89.3233 84.4512 93.6734L84.4802 109.451C84.5079 131.454 84.4413 167.69 83.464 178.186L83.3905 179.01C82.7553 186.446 82.1846 196.909 82.5105 210.398L82.563 212.444C82.5684 212.645 82.5786 212.846 82.5934 213.047C83.1204 220.177 89.3274 225.53 96.4572 225.003L98.3916 224.862L98.712 224.84C98.7766 224.947 98.8422 225.056 98.9069 225.162L98.9069 225.162C99.2202 225.68 99.5129 226.163 99.5809 226.4C99.7524 226.998 99.7706 227.676 99.6715 229.208L99.5711 230.645L99.5438 231.112C99.3976 233.977 99.7284 235.681 101.126 236.964C102.923 238.614 104.827 238.439 108.728 238.081L108.903 238.064L109.907 237.967C111.068 237.855 112.373 237.946 113.263 238.007C113.519 238.025 113.74 238.041 113.914 238.048L114.242 238.064C116.481 238.154 116.836 237.417 117.032 235.596C117.14 234.592 117 233.802 116.41 231.765L115.969 230.263L115.822 229.741C115.133 227.196 115.196 225.925 116.094 225.31C116.311 225.161 117.221 224.891 118.27 224.579C119.349 224.258 120.575 223.893 121.348 223.571C131.75 223.144 142.152 222.93 152.554 222.93C163.484 222.93 174.465 223.166 185.499 223.638C185.426 223.757 185.413 223.93 185.491 224.17C185.578 224.441 185.91 224.629 186.334 224.869C187.459 225.505 189.232 226.507 188.819 230.4L188.821 230.56C188.883 233.629 190.743 235.429 193.736 236.04C195.737 236.449 198.013 236.326 200.491 235.896C201.719 235.683 202.509 234.915 202.887 233.746C203.095 233.1 203.17 232.52 203.219 231.365C203.219 231.365 202.673 225.363 205.708 224.763C205.798 224.769 205.888 224.775 205.979 224.781C206.33 224.806 206.682 224.817 207.034 224.816C207.082 224.827 207.13 224.839 207.178 224.852C207.323 224.892 207.462 224.869 207.587 224.804C207.665 224.801 207.744 224.797 207.822 224.793C215.944 224.333 222.156 217.376 221.697 209.254L221.56 206.801C220.31 183.915 219.685 161.029 219.685 138.142C219.685 122.557 220.394 101.331 221.811 74.4633L221.945 71.9543C221.965 71.5766 221.969 71.1982 221.958 70.8201C221.728 63.4279 215.549 57.6216 208.157 57.8514L203.471 57.9953C180.254 58.6992 163.549 59.066 153.354 59.0956L151.722 59.0975C142.204 59.0901 126.816 58.7622 105.557 58.1136ZM202.661 224.56C197.502 224.227 192.355 223.945 187.219 223.714C189.678 224.907 190.555 227.136 190.604 230.219L190.605 230.4C190.605 232.395 192.157 233.697 194.244 234.123C194.462 234.168 194.686 234.216 194.915 234.266C196.357 234.579 198.005 234.936 199.833 234.636L200.11 234.59C201.374 234.123 201.374 229.582 201.374 229.582C201.388 229.212 201.401 228.972 201.423 228.678L201.45 228.349C201.608 226.696 201.954 225.461 202.661 224.56ZM101.726 225.785C101.605 225.362 101.432 224.988 101.208 224.667C105.588 224.37 109.967 224.112 114.346 223.892C113.662 224.654 113.598 225.684 113.572 226.914C113.551 227.974 113.765 229.101 114.215 230.689L114.242 230.784L114.655 232.188C115.159 233.922 115.311 234.647 115.269 235.254L115.259 235.357C115.199 235.921 114.475 236.557 113.251 236.486L113.032 236.474C112.508 236.395 107.341 236.486 107.341 236.486C104.955 236.727 103.806 236.395 102.635 235.32C101.849 234.598 101.639 233.317 101.794 230.864L101.89 229.487C102.011 227.687 102.001 226.844 101.775 225.962L101.726 225.785ZM95.7774 60.0619C96.0051 60.0541 96.2329 60.0538 96.4606 60.0612L104.765 60.3223C125.203 60.9489 140.291 61.2831 150.037 61.325L151.72 61.3294L153.357 61.3275C162.904 61.2998 178.124 60.9777 199.026 60.3612L208.226 60.0822L208.41 60.078C214.489 59.9876 219.537 64.7909 219.727 70.8895C219.737 71.2045 219.733 71.5199 219.716 71.8346C218.207 99.9293 217.453 122.029 217.453 138.142L217.455 140.599C217.498 162.707 218.124 184.815 219.332 206.923L219.468 209.378L219.478 209.584C219.753 216.389 214.518 222.178 207.696 222.564C207.175 222.594 206.652 222.591 206.132 222.555C188.137 221.317 170.277 220.698 152.554 220.698C134.447 220.698 116.34 221.344 98.2327 222.636L96.2955 222.777L96.1187 222.788C90.2899 223.124 85.251 218.724 84.8193 212.883C84.807 212.717 84.7986 212.55 84.7941 212.384C84.4034 197.975 84.5398 186.904 85.1986 179.196L85.304 178.017C85.8498 171.71 86.1439 157.221 86.2529 136.576L86.2807 130.091C86.301 123.976 86.3052 117.732 86.2977 110.814L86.2638 91.5919C86.2441 85.3446 86.1357 79.0723 85.9387 72.7752L85.8698 70.6788L85.8654 70.5089C85.7637 64.914 90.1674 60.2548 95.7774 60.0619ZM211.581 77.9927C211.581 73.0622 207.584 69.0652 202.654 69.0652L103.686 69.0656L103.446 69.0711C98.589 69.2467 94.7519 73.2862 94.8457 78.1645C95.335 103.593 95.2895 122.955 94.7092 136.249L94.5425 139.871C93.4061 165.134 93.4829 185.894 94.7729 202.153L94.8559 203.174C95.2333 207.696 98.9421 211.215 103.477 211.355L201.421 214.377C201.541 214.381 201.662 214.382 201.782 214.381C206.712 214.334 210.671 210.299 210.624 205.368C210.078 148.093 210.096 111.781 210.679 96.4317L210.715 95.5182C210.954 89.8123 211.193 84.8839 211.433 80.733L211.564 78.5459C211.576 78.3618 211.581 78.1773 211.581 77.9927ZM103.772 71.2971H202.654C206.352 71.2971 209.35 74.2948 209.35 77.9927C209.35 78.1311 209.345 78.2695 209.337 78.4076C209.103 82.1724 208.87 86.6666 208.638 91.8913L208.486 95.4249C207.896 109.526 207.839 143.293 208.313 196.78L208.392 205.39C208.427 209.088 205.458 212.114 201.76 212.149C201.67 212.15 201.58 212.149 201.49 212.146L103.546 209.124L103.399 209.118C100.065 208.943 97.359 206.331 97.0801 202.989C95.7057 186.52 95.6137 165.243 96.8084 139.173L96.9205 136.76C97.4839 124.216 97.5639 106.227 97.162 82.7788L97.0772 78.1215C97.006 74.4243 99.9456 71.3695 103.643 71.2983C103.686 71.2975 103.729 71.2971 103.772 71.2971ZM100.351 64.4521C100.492 65.9694 99.3922 67.1871 97.9108 67.0852C96.5559 66.9919 95.3642 65.9101 95.2253 64.6072L95.217 64.512C95.1309 63.2157 96.124 62.1137 97.4564 61.9724L97.557 61.9636C98.9778 61.8658 100.215 62.9888 100.351 64.4521ZM97.7302 63.5201L97.6438 63.5233C97.1076 63.5605 96.7294 63.9793 96.7787 64.4415C96.8352 64.9707 97.4007 65.484 98.018 65.5265C98.5088 65.5603 98.8496 65.1828 98.7952 64.5966C98.7381 63.982 98.2565 63.5223 97.7302 63.5201ZM89.8314 76.2863C88.287 76.4234 87.2462 74.9375 87.3746 73.1554C87.5005 71.4088 88.6999 70.0051 90.1852 70.1368L90.2811 70.1473C91.6452 70.3248 92.5876 71.6667 92.5103 73.1708L92.5033 73.276C92.3761 74.8135 91.2231 76.1629 89.8314 76.2863ZM90.0706 71.6947L89.9947 71.691C89.521 71.6968 89 72.337 88.9329 73.2677C88.8659 74.1975 89.2656 74.768 89.6934 74.7301C90.2739 74.6786 90.8781 73.9714 90.9463 73.1471C91.0109 72.3667 90.5716 71.7395 90.0706 71.6947ZM205.479 64.4521C205.338 65.9694 206.437 67.1871 207.919 67.0852C209.273 66.9919 210.465 65.9101 210.604 64.6072L210.612 64.512C210.699 63.2157 209.705 62.1137 208.373 61.9724L208.272 61.9636C206.852 61.8658 205.615 62.9888 205.479 64.4521ZM208.099 63.5201L208.186 63.5233C208.722 63.5605 209.1 63.9793 209.051 64.4415C208.994 64.9707 208.429 65.484 207.811 65.5265C207.321 65.5603 206.98 65.1828 207.034 64.5966C207.091 63.982 207.573 63.5223 208.099 63.5201ZM213.797 73.7327C212.968 72.5007 213.473 70.9396 214.858 70.3031C216.193 69.6891 217.784 70.199 218.41 71.4783L218.452 71.5698C218.996 72.7944 218.538 74.2054 217.373 74.779L217.286 74.8195C216.088 75.3506 214.556 74.8594 213.797 73.7327ZM217.016 72.183L216.975 72.1066C216.71 71.6519 216.071 71.4647 215.51 71.7225C214.976 71.9684 214.819 72.4524 215.094 72.8605C215.439 73.3739 216.166 73.607 216.653 73.3913C217.078 73.2028 217.251 72.666 217.016 72.183ZM88.7281 207.447C87.6448 208.519 87.7044 210.158 88.9048 211.032C90.0026 211.832 91.6109 211.769 92.5548 210.86L92.6224 210.793C93.5216 209.855 93.4692 208.373 92.5393 207.408L92.4679 207.337C91.4424 206.348 89.7729 206.413 88.7281 207.447ZM91.3347 208.417L91.3988 208.476C91.7857 208.849 91.8062 209.413 91.4713 209.735C91.0879 210.104 90.3247 210.134 89.8245 209.77C89.4269 209.48 89.4084 208.972 89.8269 208.558C90.2657 208.124 90.9301 208.081 91.3347 208.417ZM98.7251 219.067C97.5247 218.193 97.4651 216.553 98.5484 215.482C99.5931 214.448 101.263 214.383 102.288 215.371L102.36 215.443C103.289 216.407 103.342 217.89 102.443 218.828L102.375 218.895C101.431 219.804 99.8229 219.867 98.7251 219.067ZM101.219 216.51L101.155 216.452C100.75 216.116 100.086 216.158 99.6472 216.592C99.2287 217.006 99.2472 217.515 99.6448 217.804C100.145 218.169 100.908 218.139 101.292 217.77C101.626 217.447 101.606 216.883 101.219 216.51ZM208.63 216C207.386 217.255 207.353 219.1 208.678 220.049C209.891 220.918 211.708 220.746 212.795 219.677C213.921 218.568 213.954 216.784 212.845 215.699C211.724 214.6 209.842 214.778 208.63 216ZM211.703 216.77L211.766 216.829C212.226 217.279 212.212 218.058 211.699 218.563C211.146 219.107 210.174 219.199 209.587 218.779C209.112 218.438 209.125 217.72 209.739 217.101C210.362 216.472 211.229 216.371 211.703 216.77ZM215.716 213.645C214.329 213.755 213.354 212.515 213.475 211.022C213.592 209.571 214.697 208.42 216.024 208.525C217.329 208.628 218.265 209.818 218.141 211.157C218.021 212.443 216.962 213.546 215.716 213.645ZM215.925 210.084L215.85 210.081C215.474 210.09 215.083 210.523 215.032 211.148C214.983 211.758 215.262 212.114 215.593 212.088C216.063 212.05 216.534 211.559 216.585 211.013C216.631 210.519 216.313 210.115 215.925 210.084Z" fill="#00160A"/>
<path fill-rule="evenodd" clip-rule="evenodd" d="M98.5485 215.482C97.4652 216.553 97.5248 218.193 98.7252 219.067C99.823 219.867 101.431 219.804 102.375 218.895L102.443 218.827C103.342 217.89 103.29 216.407 102.36 215.443L102.288 215.371C101.263 214.383 99.5932 214.448 98.5485 215.482ZM101.155 216.452L101.219 216.51C101.606 216.883 101.627 217.447 101.292 217.77C100.908 218.139 100.145 218.168 99.6449 217.804C99.2472 217.515 99.2288 217.006 99.6473 216.592C100.086 216.158 100.751 216.116 101.155 216.452Z" fill="#00160A"/>
<path d="M211.703 216.77L211.767 216.829C212.226 217.279 212.212 218.058 211.699 218.563C211.146 219.107 210.174 219.199 209.587 218.779C209.112 218.439 209.125 217.72 209.739 217.101C210.362 216.472 211.229 216.371 211.703 216.77Z" fill="white"/>
<path fill-rule="evenodd" clip-rule="evenodd" d="M113.186 120.97C112.671 121.149 112.206 121.392 111.632 121.745L111.191 122.022L110.972 122.161C107.643 124.31 105.421 126.982 103.84 130.6L103.755 130.796L103.692 130.777C103.272 130.654 102.892 130.594 102.485 130.628C101.618 130.7 100.81 131.219 100.522 132.187C100.071 133.699 100.257 135.429 100.842 137.199L100.952 137.523C101.523 139.165 102.155 140.278 103.206 140.604C104.603 141.036 109.429 139.123 111.112 137.387C112.313 136.148 111.832 134.634 110.689 133.759L110.584 133.682L110.474 133.606L110.349 133.524L110.433 133.375C110.491 133.272 110.552 133.167 110.616 133.062C111.298 131.93 112.152 130.86 113.016 130.102C113.349 129.811 113.734 129.543 114.173 129.294C114.852 128.908 117.56 127.845 118.016 127.486C119.481 126.335 119.311 124.667 118.385 123.221C117.809 122.321 116.903 121.479 116.028 121.055C115.109 120.61 114.147 120.636 113.186 120.97ZM115.153 122.863C116.188 123.364 117.686 125.191 116.774 125.908C116.156 126.394 113.611 126.911 111.693 128.592C109.428 130.576 107.798 133.773 107.798 134.556L108.056 134.653C109.468 135.196 110.006 135.642 109.67 135.988C108.172 137.534 104.101 138.778 103.8 138.685C103.503 138.593 101.747 135.109 102.447 132.761C102.54 132.447 103.353 132.686 104.886 133.477C106.266 129.377 108.28 126.296 112.046 123.859L112.524 123.556C113.337 123.046 114.338 122.468 115.153 122.863Z" fill="#00160A"/>
<path fill-rule="evenodd" clip-rule="evenodd" d="M116.234 167.194C107.965 158.158 107.486 142.743 116.419 132.816C121.969 126.648 135.012 122.676 144.14 124.891C149.05 126.082 154.376 130.899 157.764 137.228C161.57 144.339 162.542 152.419 159.895 159.891C157.885 165.564 154.253 169.52 149.427 171.878C145.573 173.761 141.13 174.529 136.803 174.346C128.994 174.018 119.284 170.528 116.234 167.194ZM155.796 138.281C152.685 132.469 147.837 128.084 143.614 127.06L143.363 127.001C135.037 125.112 123.026 128.81 118.078 134.309C109.932 143.362 110.37 157.48 117.88 165.687C120.472 168.519 129.629 171.811 136.897 172.117C140.875 172.284 144.954 171.58 148.447 169.873C152.758 167.767 155.98 164.256 157.791 159.145C160.216 152.302 159.321 144.867 155.796 138.281ZM151.497 159.666C156.436 150.995 149.74 132.273 140.389 130.711C131.598 129.242 128.266 131.374 124.475 134.662L123.742 135.305C116.323 141.865 116.323 155.957 123.571 162.495C125.393 164.138 133.407 168.352 139.557 167.063C143.634 166.208 149.309 163.505 151.497 159.666ZM130.857 133.156C131.323 132.99 131.814 132.852 132.337 132.745C132.266 132.907 132.206 133.08 132.157 133.262C131.879 134.281 131.908 135.153 132.207 137.276L132.411 138.682C132.429 138.807 132.444 138.92 132.46 139.037L132.505 139.394C132.822 142.082 132.534 143.483 131.333 144.256C130.233 144.964 129.152 145.231 126.682 145.518L125.757 145.623C124.617 145.754 124.019 145.845 123.299 146.008L122.973 146.073C121.976 146.283 121.148 146.544 120.505 146.872C120.929 143.033 122.501 139.381 125.221 136.977C127.786 134.709 129.08 133.794 130.857 133.156ZM140.021 132.912C139.66 132.852 139.308 132.798 138.966 132.75C139.038 132.931 139.099 133.124 139.149 133.328C139.358 134.18 139.394 134.935 139.343 136.657L139.318 137.4C139.293 138.115 139.28 138.541 139.276 138.949L139.276 139.439C139.297 141.617 139.638 143.065 140.476 144.046L140.57 144.151L140.607 144.166C140.658 144.187 140.724 144.211 140.802 144.237L140.885 144.264C141.077 144.325 141.317 144.393 141.625 144.474L142.141 144.606L144.34 145.144C144.772 145.251 145.157 145.349 145.525 145.447L146.13 145.61C147.948 146.111 149.342 146.599 150.357 147.143C148.842 140.363 144.673 133.689 140.021 132.912ZM150.6 152.13C150.726 152.05 150.844 151.968 150.957 151.886C151.011 154.415 150.587 156.753 149.557 158.561C148.078 161.157 143.971 163.629 139.96 164.676C140.062 164.42 140.144 164.142 140.207 163.844C140.402 162.928 140.434 161.88 140.357 160.395L140.308 159.596L140.236 158.545C140.098 156.446 140.132 155.567 140.315 155.357C141.138 154.41 142.278 154.048 145.182 153.632L145.855 153.536C148.282 153.181 149.42 152.882 150.6 152.13ZM133.541 163.588C133.572 163.965 133.697 164.349 133.9 164.712C132.87 164.495 131.8 164.182 130.708 163.782C128.267 162.889 125.9 161.589 125.066 160.837C122.419 158.449 120.895 154.845 120.495 151.05C121.181 151.366 122.088 151.633 123.214 151.9L123.387 151.941C123.841 152.046 124.306 152.144 124.855 152.252L126.422 152.557C129.931 153.278 131.743 154.113 132.57 155.23L132.654 155.346C133.202 156.146 133.354 157.051 133.398 159.401L133.423 161.075C133.442 162.077 133.473 162.742 133.541 163.588ZM136.181 132.84L136.281 132.849C137.229 132.962 137.429 133.84 137.317 137.154L137.279 138.303C137.27 138.649 137.266 138.928 137.266 139.234C137.268 141.312 137.516 142.926 138.184 144.218C138.06 144.152 137.918 144.114 137.767 144.114L137.615 144.116L137.577 144.117L137.56 144.11C137.303 144.015 137.023 144.045 136.797 144.179L136.774 144.193L136.695 144.206C134.748 144.53 132.813 145.693 131.776 147.233C130.663 148.886 130.718 150.69 131.988 152.234C130.78 151.597 129.177 151.085 127.061 150.638L126.379 150.501C125.977 150.423 125.476 150.327 125.476 150.327L125.073 150.248C124.683 150.17 124.338 150.097 124.006 150.022L123.841 149.984C122.834 149.75 122.038 149.51 121.482 149.26L121.394 149.219C121.222 149.137 121.087 149.059 120.99 148.989L120.977 148.979L121.002 148.954C121.07 148.886 121.174 148.808 121.317 148.726C121.805 148.444 122.608 148.186 123.71 147.974L123.989 147.914C124.48 147.813 124.96 147.741 125.711 147.651L126.928 147.512C129.698 147.19 130.981 146.871 132.419 145.946C134.517 144.596 134.918 142.485 134.475 138.964L134.427 138.592C134.402 138.41 134.375 138.22 134.339 137.977L134.201 137.026C133.952 135.257 133.916 134.498 134.08 133.848L134.095 133.789C134.294 133.057 134.802 132.754 136.181 132.84ZM134.106 153.93C134.132 153.964 134.158 153.999 134.184 154.033C135.133 155.313 135.35 156.443 135.405 159.33L135.427 160.854C135.444 161.808 135.469 162.437 135.523 163.165L135.543 163.427C135.585 163.943 136.466 164.763 137.438 164.577C138.196 164.433 138.489 163.191 138.347 160.428L138.327 160.082L138.216 158.461C138.041 155.806 138.096 154.924 138.703 154.155C137.25 154.702 135.56 154.675 134.106 153.93ZM141.046 152.478C141.946 152.138 143.093 151.907 144.685 151.674L145.549 151.55C147.566 151.256 148.541 151.015 149.367 150.53L149.521 150.436C150.456 149.84 150.545 149.721 150.13 149.386L149.995 149.281C149.26 148.728 147.84 148.175 145.796 147.602L145.364 147.483C144.897 147.357 144.418 147.233 143.854 147.093L141.505 146.517C141.061 146.405 140.706 146.312 140.417 146.227C142.233 148.146 142.533 150.307 141.285 152.153L141.215 152.255C141.16 152.331 141.104 152.405 141.046 152.478ZM137.053 145.956L137.18 145.938L137.27 145.992C140.19 147.768 140.84 149.702 139.76 151.219C138.686 152.729 136.327 153.251 134.634 152.178C132.672 150.935 132.346 149.583 133.257 148.231C134.026 147.089 135.564 146.185 137.053 145.956Z" fill="#00160A"/>
<path d="M167.891 142.523C167.898 142.25 167.915 142.032 167.936 141.862C168.118 141.814 168.378 141.759 168.734 141.708C169.581 141.588 170.663 141.538 171.919 141.536C173.165 141.533 174.497 141.577 175.838 141.623C175.92 141.626 176.001 141.629 176.082 141.632C177.322 141.675 178.577 141.718 179.692 141.719C180.965 141.721 182.263 141.725 183.572 141.73C186.784 141.741 190.064 141.752 193.232 141.719C193.385 141.718 193.597 141.713 193.858 141.708C194.874 141.687 196.627 141.65 198.432 141.708C199.563 141.745 200.63 141.817 201.475 141.939C201.835 141.991 202.116 142.047 202.321 142.1C202.404 142.329 202.493 142.675 202.562 143.147C202.714 144.195 202.721 145.554 202.561 146.923C202.399 148.308 202.088 149.515 201.718 150.315C201.601 150.568 201.505 150.728 201.438 150.824C195.954 151.37 186.916 151.173 179.573 151.012C178.741 150.994 177.93 150.976 177.149 150.96C176.129 150.939 175.083 151.008 174.137 151.081C173.895 151.1 173.662 151.119 173.435 151.137C172.731 151.194 172.092 151.246 171.467 151.272C170.646 151.307 170.022 151.287 169.556 151.209C169.466 151.194 169.39 151.178 169.325 151.162C169.248 150.926 169.159 150.628 169.063 150.276C168.775 149.218 168.463 147.814 168.232 146.381C167.998 144.929 167.866 143.557 167.891 142.523ZM202.222 141.878C202.222 141.878 202.224 141.881 202.228 141.887C202.224 141.881 202.222 141.878 202.222 141.878ZM201.331 150.953C201.331 150.952 201.337 150.945 201.351 150.935C201.338 150.948 201.331 150.954 201.331 150.953ZM168.011 141.476C168.018 141.455 168.022 141.445 168.023 141.446C168.023 141.447 168.019 141.457 168.011 141.476Z" stroke="#D3D3D3" stroke-width="5.36509"/>
<path fill-rule="evenodd" clip-rule="evenodd" d="M179.67 139.253C180.957 139.254 182.263 139.259 183.577 139.263C186.278 139.273 189.014 139.282 191.693 139.265L193.18 139.253C193.307 139.252 193.497 139.248 193.735 139.243C195.971 139.196 202.569 139.056 204.02 140.158C206.394 141.959 205.449 153.302 202.055 153.67C196.423 154.282 186.958 154.074 179.507 153.911H179.507C178.666 153.892 177.85 153.874 177.069 153.858C175.984 153.836 174.817 153.931 173.664 154.024C171.078 154.234 168.567 154.437 167.231 153.302C166.542 152.716 163.887 141.568 165.955 140.037C167.535 138.867 172.065 139.025 176.135 139.166C177.146 139.201 178.128 139.235 179.03 139.248L179.031 139.247L179.032 139.248C179.25 139.251 179.463 139.253 179.67 139.253ZM176.948 141.427C177.168 141.434 177.368 141.441 177.553 141.446C177.703 142.37 177.721 143.995 177.613 146.387L177.533 148.117C177.463 149.733 177.437 150.833 177.483 151.635L176.958 151.624C176.226 151.615 175.484 151.647 174.466 151.722L172.954 151.84C170.729 152.004 169.574 151.98 168.994 151.774L168.952 151.758L168.918 151.659C168.823 151.38 168.715 151.022 168.603 150.611L168.531 150.34C168.242 149.237 167.965 147.929 167.762 146.669C167.515 145.133 167.391 143.758 167.416 142.728L167.42 142.597C167.433 142.254 167.464 141.97 167.506 141.758L167.514 141.722L167.59 141.697C167.973 141.575 168.651 141.451 169.559 141.38C170.689 141.292 172.037 141.281 173.906 141.328L175.482 141.377L176.948 141.427ZM184.062 151.773L179.748 151.683C179.724 151.43 179.707 151.119 179.702 150.759L179.701 150.681C179.694 150.116 179.705 149.576 179.744 148.628L179.87 145.838C179.946 143.922 179.948 142.53 179.822 141.485L189.054 141.506C189.548 141.506 190.024 141.505 190.484 141.503C190.343 144.28 190.568 149.137 190.856 151.849C190.078 151.848 189.269 151.844 188.43 151.836L186.834 151.818C185.954 151.806 185.056 151.792 184.062 151.773ZM193.124 151.842C196.553 151.813 199.307 151.702 201.442 151.49L201.641 151.469L201.668 151.442C201.782 151.313 201.915 151.105 202.051 150.827L202.102 150.72C202.503 149.853 202.82 148.59 202.984 147.192C203.146 145.808 203.144 144.406 202.983 143.298C202.909 142.787 202.804 142.368 202.686 142.074L202.653 141.995L202.628 141.943L202.539 141.916C202.3 141.845 201.972 141.777 201.571 141.717C200.78 141.599 199.761 141.521 198.57 141.479C197.462 141.44 196.336 141.434 195.075 141.451L193.203 141.485L192.671 141.489C192.653 141.791 192.641 142.15 192.636 142.552L192.634 142.682C192.625 143.77 192.664 145.141 192.742 146.659L192.758 146.964C192.821 148.155 192.906 149.385 192.997 150.466L193.052 151.096C193.076 151.365 193.1 151.616 193.124 151.842ZM183.295 145.255L183.498 145.546C183.731 145.874 183.95 146.164 184.159 146.419C183.879 147.031 183.731 147.718 183.685 148.602C183.668 148.924 183.915 149.198 184.237 149.215C184.558 149.231 184.833 148.984 184.849 148.663C184.876 148.153 184.938 147.733 185.049 147.361C185.695 147.925 186.259 148.135 186.853 148.146L186.968 148.146C187.29 148.146 187.551 147.885 187.551 147.563C187.551 147.261 187.322 147.013 187.028 146.983L186.968 146.98L186.87 146.98C186.489 146.971 186.106 146.811 185.584 146.284C185.754 146.046 185.959 145.81 186.204 145.559L186.829 144.94C187.058 144.713 187.06 144.344 186.833 144.116C186.606 143.887 186.237 143.885 186.009 144.112L185.485 144.628C185.231 144.882 185.007 145.127 184.813 145.372L184.6 145.084C184.491 144.933 184.376 144.77 184.256 144.595C184.074 144.329 183.711 144.262 183.445 144.444C183.18 144.626 183.113 144.989 183.295 145.255ZM199.213 144.7L199.219 144.344C199.222 144.022 198.963 143.759 198.641 143.756C198.319 143.753 198.056 144.012 198.053 144.334C198.05 144.688 198.041 145.006 198.026 145.289C197.728 145.195 197.406 145.117 197.053 145.049L196.33 144.914C196.014 144.854 195.709 145.062 195.649 145.378C195.589 145.694 195.796 146 196.113 146.06L196.977 146.223C197.321 146.294 197.623 146.375 197.897 146.477C197.758 147.206 197.53 147.553 197.22 147.773L197.139 147.828L197.091 147.864C196.864 148.053 196.812 148.387 196.981 148.637C197.161 148.904 197.524 148.975 197.79 148.795L197.885 148.73C198.372 148.389 198.723 147.9 198.942 147.071C199.243 147.318 199.529 147.631 199.836 148.039C200.03 148.296 200.395 148.347 200.652 148.154C200.91 147.96 200.961 147.594 200.767 147.337C200.235 146.63 199.728 146.143 199.154 145.793C199.184 145.464 199.204 145.101 199.213 144.7Z" fill="#00160A"/>
<path fill-rule="evenodd" clip-rule="evenodd" d="M173.78 144.65L173.688 144.994C173.582 145.381 173.475 145.728 173.366 146.04C173.839 146.519 174.212 147.114 174.558 147.929C174.683 148.225 174.545 148.568 174.249 148.693C173.952 148.819 173.61 148.681 173.484 148.384C173.285 147.915 173.083 147.541 172.851 147.229C172.438 147.98 171.979 148.37 171.424 148.584L171.317 148.623C171.014 148.733 170.68 148.577 170.57 148.275C170.466 147.991 170.597 147.679 170.863 147.551L170.918 147.527L171.01 147.494C171.365 147.356 171.67 147.074 171.98 146.4C171.739 146.235 171.466 146.083 171.15 145.931L170.351 145.563C170.058 145.428 169.93 145.082 170.065 144.79C170.2 144.497 170.546 144.37 170.839 144.504L171.507 144.81C171.833 144.962 172.126 145.115 172.393 145.279C172.477 145.007 172.562 144.701 172.651 144.359C172.731 144.047 173.049 143.859 173.361 143.94C173.673 144.02 173.86 144.338 173.78 144.65Z" fill="#B0E9AF"/>
</svg>
